<svg width="133" height="19" viewBox="0 0 133 19" fill="none" xmlns="http://www.w3.org/2000/svg">
<path d="M9.36435 7.03977C9.2545 6.69508 9.10677 6.38636 8.92117 6.11364C8.73935 5.83712 8.52154 5.60227 8.26776 5.40909C8.01397 5.21212 7.7242 5.0625 7.39844 4.96023C7.07647 4.85795 6.7223 4.80682 6.33594 4.80682C5.68063 4.80682 5.08973 4.97538 4.56321 5.3125C4.0367 5.64962 3.62003 6.14394 3.31321 6.79545C3.01018 7.44318 2.85866 8.23674 2.85866 9.17614C2.85866 10.1193 3.01207 10.9167 3.31889 11.5682C3.62571 12.2197 4.04616 12.714 4.58026 13.0511C5.11435 13.3883 5.7223 13.5568 6.40412 13.5568C7.0367 13.5568 7.58783 13.428 8.05753 13.1705C8.53101 12.9129 8.89654 12.5492 9.15412 12.0795C9.41548 11.6061 9.54617 11.0492 9.54617 10.4091L10.0007 10.4943H6.67116V9.04545H11.245V10.3693C11.245 11.3466 11.0367 12.1951 10.62 12.9148C10.2071 13.6307 9.63518 14.1837 8.90412 14.5739C8.17685 14.964 7.34351 15.1591 6.40412 15.1591C5.35109 15.1591 4.42685 14.9167 3.63139 14.4318C2.83973 13.947 2.2223 13.2595 1.77912 12.3693C1.33594 11.4754 1.11435 10.4148 1.11435 9.1875C1.11435 8.25947 1.24313 7.42614 1.50071 6.6875C1.75829 5.94886 2.12003 5.32197 2.58594 4.80682C3.05563 4.28788 3.60677 3.89205 4.23935 3.61932C4.87571 3.3428 5.57079 3.20455 6.32457 3.20455C6.95336 3.20455 7.53859 3.29735 8.08026 3.48295C8.62571 3.66856 9.11056 3.93182 9.5348 4.27273C9.96283 4.61364 10.317 5.01894 10.5973 5.48864C10.8776 5.95455 11.067 6.47159 11.1655 7.03977H9.36435ZM17.0987 15.1761C16.2389 15.1761 15.4983 14.9924 14.8771 14.625C14.2597 14.2538 13.7824 13.733 13.4453 13.0625C13.112 12.3883 12.9453 11.5985 12.9453 10.6932C12.9453 9.79924 13.112 9.01136 13.4453 8.32955C13.7824 7.64773 14.2521 7.11553 14.8544 6.73295C15.4605 6.35038 16.1688 6.15909 16.9794 6.15909C17.4718 6.15909 17.9491 6.24053 18.4112 6.40341C18.8733 6.56629 19.2881 6.82197 19.6555 7.17045C20.023 7.51894 20.3127 7.97159 20.5249 8.52841C20.737 9.08144 20.843 9.75379 20.843 10.5455V11.1477H13.9055V9.875H19.1783C19.1783 9.42803 19.0874 9.0322 18.9055 8.6875C18.7237 8.33902 18.468 8.06439 18.1385 7.86364C17.8127 7.66288 17.4302 7.5625 16.9908 7.5625C16.5135 7.5625 16.0968 7.67992 15.7408 7.91477C15.3885 8.14583 15.1158 8.44886 14.9226 8.82386C14.7332 9.19508 14.6385 9.59848 14.6385 10.0341V11.0284C14.6385 11.6117 14.7408 12.108 14.9453 12.517C15.1536 12.9261 15.4434 13.2386 15.8146 13.4545C16.1858 13.6667 16.6196 13.7727 17.1158 13.7727C17.4377 13.7727 17.7313 13.7273 17.9964 13.6364C18.2616 13.5417 18.4908 13.4015 18.6839 13.2159C18.8771 13.0303 19.0249 12.8011 19.1271 12.5284L20.7351 12.8182C20.6063 13.2917 20.3752 13.7064 20.0419 14.0625C19.7124 14.4148 19.2976 14.6894 18.7976 14.8864C18.3014 15.0795 17.7351 15.1761 17.0987 15.1761ZM26.8018 6.27273V7.63636H22.0348V6.27273H26.8018ZM23.3132 4.18182H25.0121V12.4375C25.0121 12.767 25.0613 13.0152 25.1598 13.1818C25.2583 13.3447 25.3852 13.4564 25.5405 13.517C25.6996 13.5739 25.8719 13.6023 26.0575 13.6023C26.1939 13.6023 26.3132 13.5928 26.4155 13.5739C26.5178 13.5549 26.5973 13.5398 26.6541 13.5284L26.9609 14.9318C26.8625 14.9697 26.7223 15.0076 26.5405 15.0455C26.3587 15.0871 26.1314 15.1098 25.8587 15.1136C25.4117 15.1212 24.995 15.0417 24.6087 14.875C24.2223 14.7083 23.9098 14.4508 23.6712 14.1023C23.4325 13.7538 23.3132 13.3163 23.3132 12.7898V4.18182ZM36.1825 15.1705C35.478 15.1705 34.8492 14.9905 34.2962 14.6307C33.7469 14.267 33.3151 13.75 33.0007 13.0795C32.6901 12.4053 32.5348 11.5966 32.5348 10.6534C32.5348 9.71023 32.692 8.90341 33.0064 8.23295C33.3246 7.5625 33.7602 7.04924 34.3132 6.69318C34.8662 6.33712 35.4931 6.15909 36.1939 6.15909C36.7356 6.15909 37.1712 6.25 37.5007 6.43182C37.834 6.60985 38.0916 6.81818 38.2734 7.05682C38.459 7.29545 38.603 7.50568 38.7053 7.6875H38.8075V3.36364H40.5064V15H38.8473V13.642H38.7053C38.603 13.8277 38.4553 14.0398 38.2621 14.2784C38.0727 14.517 37.8113 14.7254 37.478 14.9034C37.1446 15.0814 36.7128 15.1705 36.1825 15.1705ZM36.5575 13.7216C37.0462 13.7216 37.459 13.5928 37.7962 13.3352C38.1371 13.0739 38.3946 12.7121 38.5689 12.25C38.7469 11.7879 38.8359 11.25 38.8359 10.6364C38.8359 10.0303 38.7488 9.5 38.5746 9.04545C38.4003 8.59091 38.1446 8.23674 37.8075 7.98295C37.4704 7.72917 37.0537 7.60227 36.5575 7.60227C36.0462 7.60227 35.62 7.73485 35.2791 8C34.9382 8.26515 34.6806 8.62689 34.5064 9.08523C34.3359 9.54356 34.2507 10.0606 34.2507 10.6364C34.2507 11.2197 34.3378 11.7443 34.5121 12.2102C34.6863 12.6761 34.9439 13.0455 35.2848 13.3182C35.6295 13.5871 36.0537 13.7216 36.5575 13.7216ZM42.9311 15V6.27273H44.63V15H42.9311ZM43.7891 4.92614C43.4936 4.92614 43.2398 4.82765 43.0277 4.63068C42.8194 4.42992 42.7152 4.19129 42.7152 3.91477C42.7152 3.63447 42.8194 3.39583 43.0277 3.19886C43.2398 2.99811 43.4936 2.89773 43.7891 2.89773C44.0845 2.89773 44.3364 2.99811 44.5447 3.19886C44.7569 3.39583 44.8629 3.63447 44.8629 3.91477C44.8629 4.19129 44.7569 4.42992 44.5447 4.63068C44.3364 4.82765 44.0845 4.92614 43.7891 4.92614ZM46.9155 15V6.27273H48.5575V7.65909H48.6484C48.8075 7.18939 49.0878 6.82008 49.4893 6.55114C49.8946 6.27841 50.353 6.14205 50.8643 6.14205C50.9704 6.14205 51.0954 6.14583 51.2393 6.15341C51.3871 6.16098 51.5026 6.17045 51.5859 6.18182V7.80682C51.5178 7.78788 51.3965 7.76705 51.2223 7.74432C51.0481 7.7178 50.8738 7.70455 50.6996 7.70455C50.2981 7.70455 49.9401 7.78977 49.6257 7.96023C49.3151 8.12689 49.0689 8.35985 48.8871 8.65909C48.7053 8.95455 48.6143 9.29167 48.6143 9.67045V15H46.9155ZM56.505 15.1761C55.6451 15.1761 54.9046 14.9924 54.2834 14.625C53.666 14.2538 53.1887 13.733 52.8516 13.0625C52.5182 12.3883 52.3516 11.5985 52.3516 10.6932C52.3516 9.79924 52.5182 9.01136 52.8516 8.32955C53.1887 7.64773 53.6584 7.11553 54.2607 6.73295C54.8667 6.35038 55.575 6.15909 56.3857 6.15909C56.8781 6.15909 57.3554 6.24053 57.8175 6.40341C58.2796 6.56629 58.6944 6.82197 59.0618 7.17045C59.4292 7.51894 59.719 7.97159 59.9311 8.52841C60.1432 9.08144 60.2493 9.75379 60.2493 10.5455V11.1477H53.3118V9.875H58.5845C58.5845 9.42803 58.4936 9.0322 58.3118 8.6875C58.13 8.33902 57.8743 8.06439 57.5447 7.86364C57.219 7.66288 56.8364 7.5625 56.397 7.5625C55.9197 7.5625 55.5031 7.67992 55.147 7.91477C54.7947 8.14583 54.522 8.44886 54.3288 8.82386C54.1394 9.19508 54.0447 9.59848 54.0447 10.0341V11.0284C54.0447 11.6117 54.147 12.108 54.3516 12.517C54.5599 12.9261 54.8497 13.2386 55.2209 13.4545C55.5921 13.6667 56.0258 13.7727 56.522 13.7727C56.844 13.7727 57.1375 13.7273 57.4027 13.6364C57.6679 13.5417 57.897 13.4015 58.0902 13.2159C58.2834 13.0303 58.4311 12.8011 58.5334 12.5284L60.1413 12.8182C60.0125 13.2917 59.7815 13.7064 59.4482 14.0625C59.1186 14.4148 58.7038 14.6894 58.2038 14.8864C57.7076 15.0795 57.1413 15.1761 56.505 15.1761ZM65.8104 15.1761C64.9657 15.1761 64.2384 14.9848 63.6286 14.6023C63.0225 14.2159 62.5566 13.6837 62.2308 13.0057C61.9051 12.3277 61.7422 11.5511 61.7422 10.6761C61.7422 9.78977 61.9089 9.00758 62.2422 8.32955C62.5755 7.64773 63.0452 7.11553 63.6513 6.73295C64.2573 6.35038 64.9714 6.15909 65.7933 6.15909C66.4562 6.15909 67.0471 6.2822 67.5661 6.52841C68.085 6.77083 68.5036 7.11174 68.8217 7.55114C69.1437 7.99053 69.335 8.50379 69.3956 9.09091H67.7422C67.6513 8.68182 67.4429 8.32955 67.1172 8.03409C66.7952 7.73864 66.3634 7.59091 65.8217 7.59091C65.3482 7.59091 64.9335 7.71591 64.5774 7.96591C64.2251 8.21212 63.9505 8.56439 63.7536 9.02273C63.5566 9.47727 63.4581 10.0152 63.4581 10.6364C63.4581 11.2727 63.5547 11.822 63.7479 12.2841C63.9411 12.7462 64.2138 13.1042 64.5661 13.358C64.9221 13.6117 65.3407 13.7386 65.8217 13.7386C66.1437 13.7386 66.4354 13.6799 66.6967 13.5625C66.9619 13.4413 67.1835 13.2689 67.3615 13.0455C67.5433 12.822 67.6702 12.553 67.7422 12.2386H69.3956C69.335 12.803 69.1513 13.3068 68.8445 13.75C68.5376 14.1932 68.1267 14.5417 67.6115 14.7955C67.1001 15.0492 66.4998 15.1761 65.8104 15.1761ZM75.2862 6.27273V7.63636H70.5192V6.27273H75.2862ZM71.7976 4.18182H73.4964V12.4375C73.4964 12.767 73.5457 13.0152 73.6442 13.1818C73.7427 13.3447 73.8696 13.4564 74.0249 13.517C74.1839 13.5739 74.3563 13.6023 74.5419 13.6023C74.6783 13.6023 74.7976 13.5928 74.8999 13.5739C75.0021 13.5549 75.0817 13.5398 75.1385 13.5284L75.4453 14.9318C75.3468 14.9697 75.2067 15.0076 75.0249 15.0455C74.843 15.0871 74.6158 15.1098 74.343 15.1136C73.8961 15.1212 73.4794 15.0417 73.093 14.875C72.7067 14.7083 72.3942 14.4508 72.1555 14.1023C71.9169 13.7538 71.7976 13.3163 71.7976 12.7898V4.18182ZM77.1655 15V6.27273H78.8643V15H77.1655ZM78.0234 4.92614C77.728 4.92614 77.4742 4.82765 77.2621 4.63068C77.0537 4.42992 76.9496 4.19129 76.9496 3.91477C76.9496 3.63447 77.0537 3.39583 77.2621 3.19886C77.4742 2.99811 77.728 2.89773 78.0234 2.89773C78.3189 2.89773 78.5708 2.99811 78.7791 3.19886C78.9912 3.39583 79.0973 3.63447 79.0973 3.91477C79.0973 4.19129 78.9912 4.42992 78.7791 4.63068C78.5708 4.82765 78.3189 4.92614 78.0234 4.92614ZM84.826 15.1761C84.0078 15.1761 83.2938 14.9886 82.6839 14.6136C82.0741 14.2386 81.6006 13.714 81.2635 13.0398C80.9264 12.3655 80.7578 11.5777 80.7578 10.6761C80.7578 9.77083 80.9264 8.97917 81.2635 8.30114C81.6006 7.62311 82.0741 7.09659 82.6839 6.72159C83.2938 6.34659 84.0078 6.15909 84.826 6.15909C85.6442 6.15909 86.3582 6.34659 86.968 6.72159C87.5779 7.09659 88.0514 7.62311 88.3885 8.30114C88.7256 8.97917 88.8942 9.77083 88.8942 10.6761C88.8942 11.5777 88.7256 12.3655 88.3885 13.0398C88.0514 13.714 87.5779 14.2386 86.968 14.6136C86.3582 14.9886 85.6442 15.1761 84.826 15.1761ZM84.8317 13.75C85.362 13.75 85.8014 13.6098 86.1499 13.3295C86.4983 13.0492 86.7559 12.6761 86.9226 12.2102C87.093 11.7443 87.1783 11.2311 87.1783 10.6705C87.1783 10.1136 87.093 9.60227 86.9226 9.13636C86.7559 8.66667 86.4983 8.28977 86.1499 8.00568C85.8014 7.72159 85.362 7.57955 84.8317 7.57955C84.2976 7.57955 83.8544 7.72159 83.5021 8.00568C83.1536 8.28977 82.8942 8.66667 82.7237 9.13636C82.5571 9.60227 82.4737 10.1136 82.4737 10.6705C82.4737 11.2311 82.5571 11.7443 82.7237 12.2102C82.8942 12.6761 83.1536 13.0492 83.5021 13.3295C83.8544 13.6098 84.2976 13.75 84.8317 13.75ZM92.4893 9.81818V15H90.7905V6.27273H92.4212V7.69318H92.5291C92.7299 7.23106 93.0443 6.85985 93.4723 6.57955C93.9041 6.29924 94.4477 6.15909 95.103 6.15909C95.6977 6.15909 96.2185 6.28409 96.6655 6.53409C97.1125 6.7803 97.459 7.14773 97.7053 7.63636C97.9515 8.125 98.0746 8.72917 98.0746 9.44886V15H96.3757V9.65341C96.3757 9.02083 96.2109 8.52652 95.8814 8.17045C95.5518 7.81061 95.0992 7.63068 94.5234 7.63068C94.1295 7.63068 93.7791 7.71591 93.4723 7.88636C93.1693 8.05682 92.9287 8.30682 92.7507 8.63636C92.5765 8.96212 92.4893 9.35606 92.4893 9.81818ZM106.893 8.40341L105.353 8.67614C105.289 8.47917 105.186 8.29167 105.046 8.11364C104.91 7.93561 104.724 7.78977 104.489 7.67614C104.254 7.5625 103.961 7.50568 103.609 7.50568C103.128 7.50568 102.726 7.61364 102.404 7.82955C102.082 8.04167 101.921 8.31629 101.921 8.65341C101.921 8.94508 102.029 9.17992 102.245 9.35795C102.461 9.53598 102.809 9.68182 103.29 9.79545L104.677 10.1136C105.48 10.2992 106.078 10.5852 106.472 10.9716C106.866 11.358 107.063 11.8598 107.063 12.4773C107.063 13 106.912 13.4659 106.609 13.875C106.309 14.2803 105.891 14.5985 105.353 14.8295C104.819 15.0606 104.2 15.1761 103.495 15.1761C102.518 15.1761 101.72 14.9678 101.103 14.5511C100.486 14.1307 100.107 13.5341 99.9666 12.7614L101.609 12.5114C101.711 12.9394 101.921 13.2633 102.239 13.483C102.558 13.6989 102.972 13.8068 103.484 13.8068C104.04 13.8068 104.486 13.6913 104.819 13.4602C105.152 13.2254 105.319 12.9394 105.319 12.6023C105.319 12.3295 105.217 12.1004 105.012 11.9148C104.811 11.7292 104.503 11.589 104.086 11.4943L102.609 11.1705C101.794 10.9848 101.192 10.6894 100.802 10.2841C100.415 9.87879 100.222 9.36553 100.222 8.74432C100.222 8.22917 100.366 7.77841 100.654 7.39205C100.942 7.00568 101.34 6.70455 101.847 6.48864C102.355 6.26894 102.936 6.15909 103.592 6.15909C104.535 6.15909 105.277 6.36364 105.819 6.77273C106.361 7.17803 106.719 7.72159 106.893 8.40341Z" fill="#0A66C2"/>
<path d="M125.668 8.33385L131.135 2.86719" stroke="#0A66C2" stroke-width="1.5" stroke-linecap="round" stroke-linejoin="round"/>
<path d="M124.332 2.33301H122.999C119.665 2.33301 118.332 3.66634 118.332 6.99967V10.9997C118.332 14.333 119.665 15.6663 122.999 15.6663H126.999C130.332 15.6663 131.665 14.333 131.665 10.9997V9.66634" stroke="#0A66C2" stroke-width="1.5" stroke-linecap="round" stroke-linejoin="round"/>
</svg>
